<?xml version="1.0" encoding="UTF-8"?>
<!--Generator: Apple Native CoreSVG 232.5-->
<!DOCTYPE svg
PUBLIC "-//W3C//DTD SVG 1.1//EN"
       "http://www.w3.org/Graphics/SVG/1.1/DTD/svg11.dtd">
<svg version="1.1" xmlns="http://www.w3.org/2000/svg" xmlns:xlink="http://www.w3.org/1999/xlink" width="117.609" height="118.453">
 <g>
  <rect height="118.453" opacity="0" width="117.609" x="0" y="0"/>
  <path d="M92.1094 80.3906C59.8125 80.3906 38.6719 59.5781 38.6719 27.2344C38.6719 19.875 40.1719 11.0156 42.375 5.71875C42.8906 4.54688 42.9844 3.75 42.9844 3.23438C42.9844 1.64062 41.8125 0 39.7031 0C39.0469 0 37.875 0.140625 36.75 0.5625C14.7656 9.46875 0 33.1406 0 58.1719C0 92.9062 26.6719 118.266 61.4062 118.266C86.9062 118.266 109.641 102.75 117.094 83.1562C117.516 81.9844 117.609 80.7656 117.609 80.25C117.609 78.1875 115.969 76.7812 114.281 76.7812C113.625 76.7812 113.062 76.875 112.078 77.2031C107.438 78.75 99.7969 80.3906 92.1094 80.3906Z" fill="#ffffff" fill-opacity="0.85"/>
 </g>
</svg>
