<?xml version="1.0" encoding="UTF-8"?>
<!--Generator: Apple Native CoreSVG 232.5-->
<!DOCTYPE svg
PUBLIC "-//W3C//DTD SVG 1.1//EN"
       "http://www.w3.org/Graphics/SVG/1.1/DTD/svg11.dtd">
<svg version="1.1" xmlns="http://www.w3.org/2000/svg" xmlns:xlink="http://www.w3.org/1999/xlink" width="130.172" height="130.547">
 <g>
  <rect height="130.547" opacity="0" width="130.172" x="0" y="0"/>
  <path d="M65.0625 22.5469C67.5469 22.5469 69.5156 20.5312 69.5156 18.0938L69.5156 4.45312C69.5156 2.01562 67.5469 0 65.0625 0C62.625 0 60.6562 2.01562 60.6562 4.45312L60.6562 18.0938C60.6562 20.5312 62.625 22.5469 65.0625 22.5469ZM95.2031 35.1094C96.9375 36.7969 99.75 36.8438 101.531 35.1094L111.188 25.4531C112.875 23.7188 112.875 20.8594 111.188 19.125C109.453 17.4375 106.641 17.4375 104.906 19.125L95.2031 28.8281C93.5156 30.5625 93.5156 33.375 95.2031 35.1094ZM107.672 65.25C107.672 67.6875 109.688 69.6562 112.125 69.6562L125.719 69.6562C128.156 69.6562 130.172 67.6875 130.172 65.25C130.172 62.8125 128.156 60.7969 125.719 60.7969L112.125 60.7969C109.688 60.7969 107.672 62.8125 107.672 65.25ZM95.2031 95.3906C93.5156 97.125 93.5156 99.9375 95.2031 101.672L104.906 111.375C106.641 113.062 109.453 113.016 111.188 111.328C112.875 109.594 112.875 106.828 111.188 105.094L101.484 95.3906C99.75 93.7031 96.9375 93.7031 95.2031 95.3906ZM65.0625 107.953C62.625 107.953 60.6562 109.922 60.6562 112.359L60.6562 126C60.6562 128.484 62.625 130.453 65.0625 130.453C67.5469 130.453 69.5156 128.484 69.5156 126L69.5156 112.359C69.5156 109.922 67.5469 107.953 65.0625 107.953ZM34.9688 95.3906C33.2344 93.7031 30.375 93.7031 28.6406 95.3906L18.9844 105.047C17.2969 106.781 17.2969 109.547 18.9375 111.281C20.6719 112.969 23.4844 113.016 25.2188 111.328L34.9219 101.672C36.6094 99.9375 36.6094 97.125 34.9688 95.3906ZM22.4531 65.25C22.4531 62.8125 20.4844 60.7969 18.0469 60.7969L4.45312 60.7969C2.01562 60.7969 0 62.8125 0 65.25C0 67.6875 2.01562 69.6562 4.45312 69.6562L18.0469 69.6562C20.4844 69.6562 22.4531 67.6875 22.4531 65.25ZM34.9219 35.1094C36.6094 33.4219 36.6094 30.5156 34.9688 28.8281L25.2656 19.125C23.5781 17.4844 20.7656 17.4375 19.0312 19.125C17.3438 20.8594 17.3438 23.7188 18.9844 25.4062L28.6406 35.1094C30.375 36.7969 33.1875 36.7969 34.9219 35.1094Z" fill="#ffffff" fill-opacity="0.85"/>
  <path d="M65.0156 95.4375C81.5156 95.4375 95.2031 81.75 95.2031 65.25C95.2031 48.7031 81.5156 35.0156 65.0156 35.0156C48.5156 35.0156 34.875 48.7031 34.875 65.25C34.875 81.75 48.5156 95.4375 65.0156 95.4375Z" fill="#ffffff" fill-opacity="0.85"/>
 </g>
</svg>
