<?xml version="1.0" encoding="UTF-8"?>
<!--Generator: Apple Native CoreSVG 232.5-->
<!DOCTYPE svg
PUBLIC "-//W3C//DTD SVG 1.1//EN"
       "http://www.w3.org/Graphics/SVG/1.1/DTD/svg11.dtd">
<svg version="1.1" xmlns="http://www.w3.org/2000/svg" xmlns:xlink="http://www.w3.org/1999/xlink" width="142.219" height="123.797">
 <g>
  <rect height="123.797" opacity="0" width="142.219" x="0" y="0"/>
  <path d="M12.375 102.844L129.844 102.844C137.531 102.844 142.219 98.1562 142.219 90.4688L142.219 16.3594C142.219 8.67188 137.531 3.98438 129.844 3.98438L12.375 3.98438C4.6875 3.98438 0 8.67188 0 16.3594L0 90.4688C0 98.1562 4.6875 102.844 12.375 102.844ZM11.0625 77.1562C9.1875 77.1562 8.29688 76.3594 8.29688 74.3438L8.29688 16.5469C8.29688 13.9219 9.9375 12.2812 12.5625 12.2812L129.656 12.2812C132.281 12.2812 133.922 13.9219 133.922 16.5469L133.922 74.3438C133.922 76.3594 133.031 77.1562 131.156 77.1562ZM52.3594 117.797L89.8594 117.797L89.8594 102.094L52.3594 102.094ZM51.75 123.797L90.4688 123.797C92.7656 123.797 94.6406 121.969 94.6406 119.672C94.6406 117.328 92.7656 115.453 90.4688 115.453L51.75 115.453C49.4531 115.453 47.5781 117.328 47.5781 119.672C47.5781 121.969 49.4531 123.797 51.75 123.797Z" fill="#ffffff" fill-opacity="0.85"/>
 </g>
</svg>
